<?xml version="1.0" ?><!DOCTYPE svg  PUBLIC '-//W3C//DTD SVG 1.1//EN'  'http://www.w3.org/Graphics/SVG/1.1/DTD/svg11.dtd'><svg enable-background="new 0 0 100 100" height="100px" version="1.1" viewBox="0 0 100 100" width="100px" xml:space="preserve" xmlns="http://www.w3.org/2000/svg" xmlns:xlink="http://www.w3.org/1999/xlink"><g id="Layer_1"><g><polygon fill="#3C4929" points="37.76,39.173 34.334,38.731 31.193,39.361 34.549,39.753   "/><polygon fill="#3C4929" points="34.125,44.386 50,45.401 65.875,44.386 50,42.8   "/><polygon fill="#3C4929" points="60.727,39.173 64.59,39.854 68.807,39.361 65.04,38.609   "/><polygon fill="#B7CA9D" points="44.793,67.908 53.875,65.775 62.635,67.824 53.555,70.547   "/><polygon fill="#759C3E" points="45.799,38.374 41.078,37.561 41.078,24.767 45.799,26.239   "/><polygon fill="#4B612C" points="34.125,27.55 34.125,21.937 50,14 50,21.2 41.078,24.767 41.078,37.384 50,35.599 50,86     45.244,83.623 45.244,76.898 41.078,75.232 41.078,43.69 34.125,44.386 34.125,38.774 31.193,39.361 31.193,28.722   "/><polygon fill="#759C3E" points="58.217,18.108 61.562,19.781 65.873,21.937 65.873,27.55 68.807,28.722 68.807,39.36     65.873,38.774 65.873,44.386 62.135,44.013 58.92,43.69 58.92,49.927 58.92,49.963 58.92,49.999 65.875,49.999 65.875,55.771     62.643,56.061 62.643,61.881 54.754,63.449 54.754,70.174 62.625,67.838 62.643,73.771 54.754,76.898 54.754,83.623 50,86     50,64.4 50,57.201 50,49.958 50,49.918 50,42.8 50,35.599 54.198,36.438 54.198,26.239 50,24.769 50,21.2 50,14   "/><polygon fill="#3C4929" points="54.754,23.101 50,21.201 41.078,24.767 45.799,26.239   "/><polygon fill="#4B612C" points="54.199,26.239 58.92,24.769 58.92,37.385 54.199,36.438   "/><polygon fill="#3C4929" points="41.078,24.767 50,21.201 51.877,21.951 54.754,23.101 58.92,24.769 54.199,26.239 50,24.767     45.799,26.239   "/></g></g></svg>